<svg width="27" height="36" viewBox="0 0 27 36" fill="none" xmlns="http://www.w3.org/2000/svg">
<path d="M23.348 22.8965L21.3459 22.2926L16.9899 19.3697V18.7C18.2511 17.7227 19.1171 16.2289 19.2781 14.5166C19.9106 14.4121 20.3952 13.8474 20.3952 13.1687V11.327C20.3952 11.3199 20.3945 11.3129 20.3941 11.3058V8.97287C20.6461 8.78751 20.806 8.48557 20.806 8.14688V6.01192L23.8122 5.48588C24.3062 5.39943 24.6615 4.99633 24.6964 4.48275C24.7312 3.96917 24.4338 3.51931 23.9563 3.36331L13.8221 0.0518338C13.6106 -0.0173008 13.3873 -0.0172323 13.1759 0.0517654L3.04164 3.36331C2.56411 3.51931 2.26667 3.96917 2.30152 4.48268C2.32364 4.80898 2.47542 5.09031 2.70969 5.27458V8.06645H2.68491C2.11423 8.06645 1.64995 8.54341 1.64995 9.12969V10.5155L0.981854 14.544C0.866385 15.2407 1.38876 15.8785 2.07838 15.8785H4.34039C5.02847 15.8785 5.55265 15.2422 5.43691 14.5439L4.76882 10.5155V9.12969C4.76882 8.54341 4.30454 8.06645 3.73386 8.06645H3.70914V5.5774L6.19403 6.0122V8.14688C6.19403 8.48413 6.3532 8.78559 6.604 8.97123L6.60493 11.3272V13.1687C6.60493 13.8475 7.08953 14.4121 7.72204 14.5166C7.88295 16.228 8.74807 17.7211 10.008 18.6984V19.3713L5.65299 22.2936L3.65244 22.8969C1.51169 23.5423 0.000133186 25.5614 0.000133186 27.9084V29.4384C0.000133186 29.7219 0.223809 29.9518 0.499856 29.9518C0.775902 29.9518 0.999578 29.722 0.999578 29.4384V27.9084C0.999578 26.0586 2.20617 24.4029 3.93395 23.882L5.79798 23.3199L13.2449 27.8659C13.3961 27.9581 13.5961 27.9631 13.7554 27.8659L21.2028 23.3196L23.0667 23.8817C24.7942 24.4028 26.0008 26.0584 26.0008 27.9081V32.8665C26.0008 33.5024 25.4971 34.0199 24.878 34.0199H22.6755V31.807C22.6755 31.5235 22.4518 31.2936 22.1757 31.2936C21.8998 31.2936 21.676 31.5234 21.676 31.807V34.0199H5.32191V31.807C5.32191 31.5235 5.09823 31.2936 4.82219 31.2936C4.54614 31.2936 4.32247 31.5234 4.32247 31.807V34.0199H2.12215C1.5031 34.0199 0.999445 33.5024 0.999445 32.8665V31.8382C0.999445 31.5547 0.775769 31.3248 0.499722 31.3248C0.223676 31.3248 0 31.5546 0 31.8382V32.8664C0 34.0685 0.951938 35.0465 2.12209 35.0465H24.8779C26.0481 35.0465 27 34.0685 27 32.8664V27.908C27 25.6163 25.54 23.5577 23.348 22.8965ZM4.34032 14.8517H2.07838C2.00848 14.8517 1.95518 14.7876 1.96704 14.7163L2.57137 11.0723H3.84733L4.45166 14.7162C4.46345 14.7874 4.41055 14.8517 4.34032 14.8517ZM3.76937 9.12969V10.0456H2.64926V9.12969C2.64926 9.1095 2.66519 9.09314 2.68484 9.09314H3.73373C3.75345 9.09307 3.76937 9.1095 3.76937 9.12969ZM11.7128 25.5436L11.9117 25.8577L6.80995 22.7434L10.0482 20.5704C10.1951 22.3406 10.763 24.0439 11.7128 25.5436ZM11.7094 23.3275C12.8856 23.4992 14.1138 23.4994 15.2907 23.3275C15.0633 23.9024 14.7831 24.4571 14.4496 24.9838L13.5 26.4831L12.5505 24.9838C12.217 24.4571 11.9368 23.9024 11.7094 23.3275ZM15.2872 25.5436C16.237 24.0439 16.805 22.3406 16.9518 20.5704L20.1901 22.7433L15.0884 25.8577L15.2872 25.5436ZM18.2104 9.16405H19.3948V10.8136H18.8069C18.4779 10.8136 18.2103 10.5387 18.2103 10.2007V9.16405H18.2104ZM3.34454 4.34174L13.479 1.03012C13.492 1.02588 13.506 1.02581 13.5192 1.03019L23.6535 4.34174C23.6744 4.34858 23.7032 4.35789 23.6995 4.41135C23.6958 4.46474 23.6662 4.46988 23.6445 4.47371L20.2938 5.05999L19.0358 4.90016C18.7621 4.86531 18.5125 5.06533 18.4786 5.34666C18.4448 5.62805 18.6394 5.88433 18.9132 5.9191L19.8067 6.03266V8.13737L7.1934 8.13689V6.03259L12.3643 5.37527C13.1175 5.27964 13.8811 5.27964 14.6337 5.37527L16.5908 5.62395C16.8647 5.65879 17.1142 5.45885 17.1481 5.17752C17.1821 4.89612 16.9874 4.63984 16.7136 4.605L14.7565 4.35632C13.9225 4.25029 13.0763 4.25029 12.2417 4.35632L6.70514 5.06012L3.35347 4.47371C3.33175 4.46988 3.3021 4.46474 3.29843 4.41135C3.29484 4.35789 3.32355 4.34852 3.34454 4.34174ZM7.60404 10.8136L7.60338 9.16405H8.78972V10.2008C8.78972 10.5387 8.52213 10.8136 8.19312 10.8136H7.60404V10.8136ZM8.7039 14.2528C8.67818 13.8347 8.33997 13.5073 7.93399 13.5073C7.75216 13.5073 7.60424 13.3553 7.60424 13.1686V11.8403H8.19312C9.07309 11.8403 9.78909 11.1048 9.78909 10.2008V9.16405H17.2109V10.2008C17.2109 11.1048 17.9269 11.8403 18.8069 11.8403H19.3958V13.1686C19.3958 13.3553 19.2478 13.5073 19.066 13.5073C18.66 13.5073 18.3218 13.8347 18.2961 14.2528C18.1369 16.845 16.0302 18.8755 13.5 18.8755C10.9697 18.8755 8.86308 16.845 8.7039 14.2528ZM13.5 19.9022C14.3888 19.9022 15.2335 19.6935 15.9905 19.3223V19.6476C15.9905 20.5253 15.8752 21.3912 15.6533 22.2262C14.2953 22.4922 12.7599 22.503 11.3468 22.2262C11.1248 21.3912 11.0095 20.5254 11.0095 19.6476C11.0095 19.6367 11.0081 19.6261 11.0074 19.6154C11.0073 19.6132 11.0075 19.6111 11.0074 19.609V19.3212C11.7649 19.693 12.6104 19.9022 13.5 19.9022Z" fill="white"/>
</svg>
